<svg xmlns="http://www.w3.org/2000/svg" width="40" height="40" style="background: transparent" viewBox="0 0 40 40">
    <defs>
        <linearGradient id="a" x1="0%" y1="0%" y2="100%">
            <stop offset="0%" stop-color="#4DDFBF"/>
            <stop offset="100%" stop-color="#31BE9E"/>
        </linearGradient>
    </defs>
    <path fill="url(#a)" fill-rule="nonzero" d="M36.798 9.53c.382 0 .692-.31.692-.692V2.692A.692.692 0 0 0 36.798 2H2.795a.692.692 0 0 0-.693.692v6.146c0 .382.31.692.693.692h2.482v4.457h-2.43a.692.692 0 0 0-.693.692v2.663c0 .383.31.693.692.693h2.431v11.721H2.692a.692.692 0 0 0-.692.692v6.145c0 .382.31.693.692.693h34.004c.382 0 .692-.31.692-.693v-6.145a.693.693 0 0 0-.692-.692H34.52V9.53h2.278zM3.488 3.385h32.618v4.76H3.487v-4.76zm12.29 6.145h8.038v7.428h-8.039V9.53zm-9.116 0h7.73v5.891h-2.898v-.742a.692.692 0 0 0-.692-.692h-4.14V9.53zm-3.123 5.842h6.57v1.278H3.54v-1.278zm32.464 20.53H3.385V31.14h32.618v4.76zm-19.5-9.596v-2.627H23.3v2.627c0 1.672-1.524 3.032-3.398 3.032s-3.399-1.36-3.399-3.032zm16.633 3.45H22.88c1.098-.81 1.805-2.054 1.805-3.45v-3.32a.693.693 0 0 0-.693-.692h-8.18a.692.692 0 0 0-.693.693v3.319c0 1.395.706 2.64 1.804 3.45H6.662V18.035h4.14c.382 0 .692-.31.692-.693v-.536h2.899v.844c0 .382.31.692.692.692h9.423c.382 0 .692-.31.692-.692V9.53h7.935v20.226z"/>
</svg>
