<?xml version="1.0" standalone="no"?>
<!DOCTYPE svg PUBLIC "-//W3C//DTD SVG 20010904//EN"
 "http://www.w3.org/TR/2001/REC-SVG-20010904/DTD/svg10.dtd">
<svg version="1.0" xmlns="http://www.w3.org/2000/svg"
 width="120.000000pt" height="120.000000pt" viewBox="0 0 120.000000 120.000000"
 preserveAspectRatio="xMidYMid meet">
<metadata>
Created by potrace 1.11, written by Peter Selinger 2001-2013
</metadata>
<g transform="translate(0.000000,120.000000) scale(0.100000,-0.100000)"
fill="#000000" stroke="none">
<path d="M445 1040 l-160 -160 105 -1 c58 -1 111 -1 118 0 9 2 12 -42 12 -189
l0 -191 -190 -192 -189 -192 57 -58 57 -57 188 192 c104 106 201 207 215 223
l27 30 -1 217 -1 217 114 0 c63 -1 116 1 118 3 2 1 -67 74 -153 161 l-157 157
-160 -160z"/>
<path d="M807 272 c-26 -26 -47 -51 -47 -56 0 -5 46 -55 103 -113 l102 -104
53 56 53 56 -103 105 c-56 57 -105 104 -108 104 -3 0 -27 -22 -53 -48z"/>
</g>
</svg>
