<svg xmlns="http://www.w3.org/2000/svg" width="40" height="40" style="background: transparent" viewBox="0 0 40 40">
    <defs>
        <linearGradient id="a" x1="0%" y1="0%" y2="100%">
            <stop offset="0%" stop-color="#4DDFBF"/>
            <stop offset="100%" stop-color="#31BE9E"/>
        </linearGradient>
    </defs>
    <path fill="url(#a)" fill-rule="nonzero" d="M36.003 16.307v-5.786c0-.799-.74-1.521-1.539-1.521H24V5c0-.736-.652-1-1.107-1h-5.786C16.63 4 16 4.445 16 5v4H5.536C4.486 9 4 9.522 4 10.521v5.786C4 17.418 4.496 18 5.536 18h28.928c.8 0 1.539-.894 1.539-1.693zM34 16l-27.612.003L6.404 11h10.125c.799 0 1.446-.258 1.446-1.057V6h4.05v3.942c0 .799.647 1.057 1.446 1.057H34v5zM9.5 23.646a1.5 1.5 0 1 1 0-3 1.5 1.5 0 0 1 0 3zm7.333 0a1.5 1.5 0 1 1 0-3 1.5 1.5 0 0 1 0 3zm7.334 0a1.5 1.5 0 1 1 0-3 1.5 1.5 0 0 1 0 3zm2.083 5.786a1.5 1.5 0 1 1 0-3 1.5 1.5 0 0 1 0 3zM3.858 35.217a1.5 1.5 0 1 1 0-3 1.5 1.5 0 0 1 0 3zM6.5 29.432a1.5 1.5 0 1 1 0-3 1.5 1.5 0 0 1 0 3zm8.25 0a1.5 1.5 0 1 1 0-3 1.5 1.5 0 0 1 0 3zm-2.732 5.787a1.5 1.5 0 1 1 0-3 1.5 1.5 0 0 1 0 3zM31.5 23.646a1.5 1.5 0 1 1 0-3 1.5 1.5 0 0 1 0 3zm3 5.787a1.5 1.5 0 1 1 0-3 1.5 1.5 0 0 1 0 3zm-6.16 5.786a1.5 1.5 0 1 1 0-3 1.5 1.5 0 0 1 0 3zm8.16 0a1.5 1.5 0 1 1 0-3 1.5 1.5 0 0 1 0 3z"/>
</svg>
