<svg xmlns="http://www.w3.org/2000/svg" width="40" height="40" style="background: transparent" viewBox="0 0 40 40">
    <defs>
        <linearGradient id="a" x1="0%" y1="0%" y2="100%">
            <stop offset="0%" stop-color="#4DDFBF"/>
            <stop offset="100%" stop-color="#31BE9E"/>
        </linearGradient>
    </defs>
    <path fill="url(#a)" fill-rule="evenodd" d="M7.345 6.486v26.916c0 3.354.606 4.34 4.356 4.34h16.49c3.386 0 4.352-.806 4.352-4.34V6.486c0-3.91-1.145-4.34-4.351-4.34H11.7c-3.878 0-4.356.492-4.356 4.34zm20.847-2.722c2.28 0 2.733.681 2.733 2.722v26.916c0 2.069-.406 2.722-2.733 2.722H11.7c-2.465 0-2.738-.574-2.738-2.722V6.486c0-2.074.563-2.722 2.738-2.722h16.49zm-8.248 13.767c-4.11 0-7.466 3.344-7.466 7.445 0 4.106 3.356 7.45 7.466 7.45 4.114 0 7.47-3.344 7.47-7.45 0-4.101-3.356-7.445-7.47-7.445zm0 1.617c3.242 0 5.853 2.605 5.853 5.828a5.832 5.832 0 0 1-5.853 5.832 5.832 5.832 0 0 1-5.849-5.832c0-3.223 2.612-5.828 5.849-5.828zm0 2.466a3.378 3.378 0 0 0-3.37 3.362 3.38 3.38 0 0 0 3.37 3.367c1.853 0 3.375-1.516 3.375-3.367s-1.524-3.362-3.375-3.362zm0 1.617c.982 0 1.757.771 1.757 1.745 0 .974-.776 1.75-1.757 1.75-.98 0-1.753-.775-1.753-1.75s.77-1.745 1.753-1.745zm0-15.769a3.38 3.38 0 0 0-3.37 3.368 3.38 3.38 0 0 0 3.37 3.367c1.853 0 3.375-1.516 3.375-3.367 0-1.852-1.522-3.368-3.375-3.368zm0 1.618c.98 0 1.757.776 1.757 1.75 0 .973-.776 1.749-1.757 1.749-.98 0-1.753-.774-1.753-1.75 0-.975.772-1.749 1.753-1.749z"/>
</svg>
