<svg xmlns="http://www.w3.org/2000/svg" width="40" height="40" style="background: transparent" viewBox="0 0 40 40">
    <defs>
        <linearGradient id="a" x1="0%" y1="0%" y2="100%">
            <stop offset="0%" stop-color="#4DDFBF"/>
            <stop offset="100%" stop-color="#31BE9E"/>
        </linearGradient>
    </defs>
    <path fill="url(#a)" fill-rule="nonzero" d="M12.634 12.138a2.104 2.104 0 1 0 0-4.209 2.104 2.104 0 0 0-2.105 2.105c.056 1.163.997 2.104 2.105 2.104zm0-3.323c.664 0 1.274.554 1.274 1.274s-.554 1.274-1.274 1.274a1.33 1.33 0 0 1-1.219-1.33c0-.72.554-1.218 1.219-1.218zm25.31-4.652h-.72v10.523h.72v.83H20.333v-.83h16.062V4.163H17.12v6.757h-.83V4.163h-.72v-.83h22.375v.83zm-23.387 33.42l-.829-.052.142-2.266.83.052-.143 2.266zm6.427-.027l-.143-2.267.83-.052.142 2.267-.83.052zm12.253-3.264s.166 1.606.388 3.268l-.831.055a58.427 58.427 0 0 0-.222-3.212c0-.443-.166-.775-.277-.997a1.31 1.31 0 0 0-.775-.664l-1.274-.444-1.55 2.88H27.31l-1.551-2.88-2.16.776c.11.332.166.61.166.941 0 0 .222 1.828.277 3.6l-.83.056a46.656 46.656 0 0 0-.278-3.545c0-.443-.166-.83-.332-1.108-.166-.332-.498-.553-.886-.72l-1.44-.498-1.717 3.157h-1.44L15.403 31.8l-1.44.498c-.388.111-.72.388-.886.72-.166.222-.332.61-.332 1.053 0 .055-.222 1.827-.277 3.6l-.831-.056c.055-1.827.277-3.655.277-3.655 0-.332.055-.61.166-.942l-2.16-.775-1.55 2.88H6.984l-1.551-2.88-1.274.443c-.332.11-.61.388-.775.665-.111.221-.277.554-.277.941 0 .056-.166 1.662-.222 3.268l-.83-.055c.11-1.607.276-3.268.276-3.268 0-.388.111-.886.388-1.33a1.93 1.93 0 0 1 1.218-1.052l1.939-.664 1.661 3.046h.388l1.662-3.046 1.717.609.941-8.695.388.055.388-.055.996 8.086 1.607-.554 1.827 3.378h.443l1.828-3.378 2.105.72c.498.166.941.498 1.218.886l2.936-1.052 1.661 3.046h.388l1.661-3.046 1.939.664c.498.222.941.554 1.218 1.053.277.498.388.941.388 1.384zm-2.517 3.25l-.129-2.046.83-.052.128 2.045-.829.052zm-.142-9.231a2.718 2.718 0 0 1-2.713 2.714 2.718 2.718 0 0 1-2.714-2.714 2.718 2.718 0 0 1 2.714-2.714 2.718 2.718 0 0 1 2.713 2.714zm-4.596 0c0 1.052.83 1.883 1.883 1.883 1.052 0 1.883-.83 1.883-1.883s-.831-1.883-1.883-1.883c-1.053 0-1.883.83-1.883 1.883zM4.825 37.574l-.83-.052.129-2.045.83.052-.129 2.045zm2.88-6.55c-1.496 0-2.714-1.218-2.659-2.658a2.718 2.718 0 0 1 2.714-2.714c.61 0 1.218.222 1.662.61l.11-3.6H8.037V15.24c0-1.662 1.385-3.046 3.046-3.046h.222l1.329 2.437h.221l1.33-2.437h3.157l3.766-3.766.72.72 3.157-3.102.609.61-3.157 3.1.72.72-5.317 5.318h-1.385c-.387.166-.609.498-.609.941l.277 8.696c.499-.388 1.052-.61 1.717-.61a2.837 2.837 0 0 1 2.825 2.825 2.837 2.837 0 0 1-2.825 2.825 2.837 2.837 0 0 1-2.825-2.825c0-.443.111-.83.277-1.218l-.277-9.693c0-.775.443-1.495 1.219-1.772H17.452l4.486-4.486-.83-.83-3.379 3.378h-2.99l-1.33 2.437h-1.218l-1.33-2.437a2.225 2.225 0 0 0-1.993 2.215v6.59h.664l.111-3.932h.83l-.276 9.36c.166.333.221.665.221 1.053a2.718 2.718 0 0 1-2.713 2.714zm10.08-5.316a1.986 1.986 0 0 0-1.994 1.994c0 1.107.886 1.993 1.994 1.993a1.986 1.986 0 0 0 1.993-1.993 1.986 1.986 0 0 0-1.993-1.994zm-10.08.775c-1.053 0-1.883.83-1.883 1.883 0 1.052.83 1.883 1.883 1.883 1.052 0 1.883-.83 1.883-1.883 0-1.052-.831-1.883-1.883-1.883z"/>
</svg>
