<svg xmlns="http://www.w3.org/2000/svg" width="40" height="40" style="background: transparent" viewBox="0 0 40 40">
    <defs>
        <linearGradient id="a" x1="0%" y1="0%" y2="100%">
            <stop offset="0%" stop-color="#4DDFBF"/>
            <stop offset="100%" stop-color="#31BE9E"/>
        </linearGradient>
    </defs>
    <path fill="url(#a)" fill-rule="nonzero" d="M39.26 7H.74a.741.741 0 0 0-.74.74v23.704c0 .41.332.741.74.741h2.964a.74.74 0 1 0 0 1.482h2.963a.74.74 0 1 0 0-1.482h26.666a.74.74 0 1 0 0 1.482h2.963a.74.74 0 1 0 0-1.482h2.963a.74.74 0 0 0 .741-.74V7.74A.74.74 0 0 0 39.26 7zm-.741 23.704H1.48V8.48H38.52v22.223zM3.704 29.222h22.222a.74.74 0 0 0 .74-.74V10.703a.74.74 0 0 0-.74-.741H3.704a.741.741 0 0 0-.741.74v17.778c0 .41.332.741.74.741zm.74-17.778h20.741v16.297H4.445V11.444zm18.519 4.445a.74.74 0 0 0-.74.74v5.927a.74.74 0 1 0 1.48 0V16.63a.74.74 0 0 0-.74-.741zm5.926-5.185v2.963h7.407v-2.963H28.89zm2.963 4.444v1.482h1.481v-1.482h-1.481zm2.963 0v1.482h1.481v-1.482h-1.481zm-5.926 0v1.482h1.481v-1.482H28.89zm2.963 2.963v1.482h1.481V18.11h-1.481zm2.963 0v1.482h1.481V18.11h-1.481zm-5.926 0v1.482h1.481V18.11H28.89zm2.963 11.111a3.708 3.708 0 0 0 3.704-3.703 3.708 3.708 0 0 0-3.704-3.704 3.708 3.708 0 0 0-3.704 3.704 3.708 3.708 0 0 0 3.704 3.703zm-.74-5.789v2.086a.74.74 0 1 0 1.48 0v-2.086a2.219 2.219 0 0 1 1.482 2.086 2.225 2.225 0 0 1-2.222 2.222 2.225 2.225 0 0 1-2.222-2.222c0-.965.621-1.779 1.481-2.086zM6.666 15.89c.19 0 .379-.073.523-.217l1.482-1.482a.74.74 0 1 0-1.048-1.047l-1.481 1.481a.74.74 0 0 0 .524 1.265zm5.402-2.746l-1.482 1.481a.74.74 0 1 0 1.048 1.048l1.481-1.482a.74.74 0 1 0-1.047-1.047zm-2.963 2.963l-2.963 2.963a.74.74 0 1 0 1.047 1.047l2.963-2.963a.74.74 0 1 0-1.047-1.047z"/>
</svg>
