<svg xmlns="http://www.w3.org/2000/svg" width="40" height="40" style="background: transparent" viewBox="0 0 40 40">
    <defs>
        <linearGradient id="a" x1="0%" y1="0%" y2="100%">
            <stop offset="0%" stop-color="#4DDFBF"/>
            <stop offset="100%" stop-color="#31BE9E"/>
        </linearGradient>
    </defs>
    <path fill="url(#a)" fill-rule="nonzero" d="M2.479 7.479c-.382.319-.542.84-.479 1.565V28h36V9.023c-.053-.78-.219-1.295-.497-1.544-.277-.25-.778-.41-1.5-.479H4.007c-.637 0-1.146.16-1.528.479zM36 26H4V9h32v17zm-11 3h13.018v1.14c-.008.296-.08.51-.218.642-.137.132-.338.205-.602.218H25.452l.473 1.57c.093.2.093.391 0 .572-.093.181-.276.24-.55.175h-10.67c-.3.022-.502-.037-.605-.175-.102-.138-.116-.33-.04-.573L14.547 31H3.009c-.317-.009-.559-.081-.724-.218-.165-.136-.26-.402-.285-.797V29h23zm-.56 3.317L24.09 31h-8.18l-.35 1.317h8.88z"/>
</svg>
