<svg xmlns="http://www.w3.org/2000/svg" width="40" height="40" style="background: transparent" viewBox="0 0 40 40">
    <path fill="#50E3C2" fill-rule="nonzero" d="M5 33.35h4.575v3.675c0 .45.3.75.75.75h19.35c.45 0 .75-.3.75-.75V33.35H35c2.384 0 3-.74 3-3V18.2c0-2.166-.759-3-3-3h-4.575V2.975c0-.45-.3-.75-.75-.75h-19.35c-.45 0-.75.3-.75.75V15.2H5c-2.464 0-3 .798-3 3v12.225c0 2.377.69 2.925 3 2.925zm23.925 2.925h-17.85V29.9h17.85v6.375zm-17.85-32.55h17.85V15.2h-17.85V3.725zM3.5 18.2c0-1.363.235-1.5 1.5-1.5h30c1.293 0 1.5 0 1.5 1.5v12.225c0 1.132 0 1.5-1.5 1.5h-4.575v-1.95h1.2c.45 0 .75-.3.75-.75s-.3-.75-.75-.75H8.375c-.45 0-.75.3-.75.75s.3.75.75.75h1.2v1.95H5c-1.5 0-1.5 0-1.5-1.5V18.2zm21.675 5.7H32.3c.45 0 .75-.3.75-.75v-3.225c0-.45-.3-.75-.75-.75h-7.125c-.45 0-.75.3-.75.75v3.225c0 .375.3.75.75.75zm.75-3.3h5.625v1.725h-5.625V20.6zm-.15-13.275c.45 0 .75.3.75.75s-.3.75-.75.75H14c-.45 0-.75-.3-.75-.75s.3-.75.75-.75h11.775zm0 3.9c.45 0 .75.3.75.75s-.3.75-.75.75H14c-.45 0-.75-.3-.75-.75s.3-.75.75-.75h11.775z"/>
</svg>
