<svg xmlns="http://www.w3.org/2000/svg" width="40" height="40" style="background: transparent" viewBox="0 0 40 40">
    <defs>
        <linearGradient id="a" x1="0%" y1="0%" y2="100%">
            <stop offset="0%" stop-color="#4DDFBF"/>
            <stop offset="100%" stop-color="#31BE9E"/>
        </linearGradient>
    </defs>
    <path fill="url(#a)" fill-rule="evenodd" d="M31.213 2.075a.758.758 0 0 0-.754.754c0 .43.323.753.754.753h5.202v5.203c0 .394.323.753.754.753a.758.758 0 0 0 .753-.753V2.829a.736.736 0 0 0-.753-.754h-5.956zm-28.416 0a.736.736 0 0 0-.754.754V8.82c0 .394.323.753.754.753a.758.758 0 0 0 .753-.753V3.582h5.203a.758.758 0 0 0 .753-.753c0-.43-.323-.754-.718-.754H2.797zm13.131.108a.718.718 0 0 0-.287 1.005c.323.61.646 1.22 1.005 1.794.682 1.255 1.4 2.511 2.117 3.731.645 1.148 1.327 2.296 2.009 3.444.323.574.933 1.579 1.363 2.045.503.503-.215 2.333-1.291 2.333H17.22a.758.758 0 0 0-.754.753c0 1.076.36 2.476 1.113 3.23.215.214.25.43.071.645l-1.686.717-4.485 1.938a.837.837 0 0 0-.466.753c.036.323.251.574.61.646.717.144 2.906.646 4.162 1.148.394.144.717.323.86.467.252.25.252.502 0 .717-.322.287-.717.682-.968 1.113-.323.538-.43 1.112-.072 1.65.036.036.036.072.072.108.933 1.076 1.615 1.506 1.615 3.121 0 1.292-.395 2.87-1.938 2.87h-.036a.758.758 0 0 0-.753.754c0 .395.323.753.753.753 2.476 0 3.445-2.188 3.445-4.377 0-2.045-.754-2.69-1.902-4.018.108-.251.574-.682.718-.826.036 0 .036-.035.071-.035.826-.826.826-2.046 0-2.87-.358-.36-1.076-.682-1.865-.97a23.106 23.106 0 0 0-1.687-.502l1.758-.753 2.512-1.077c.108-.035.18-.071.215-.143.825-.825.825-2.045 0-2.87-.323-.323-.502-.897-.61-1.436h2.799c2.332 0 3.875-3.408 2.368-4.88-.323-.322-.897-1.327-1.148-1.757a105.122 105.122 0 0 1-1.974-3.409 425.767 425.767 0 0 1-3.085-5.525.765.765 0 0 0-.647-.388.691.691 0 0 0-.358.101zm12.665 13.885a9.695 9.695 0 0 1 4.844 8.432 9.738 9.738 0 0 1-4.844 8.431l.754 1.292a11.232 11.232 0 0 0 5.597-9.723c0-4.162-2.26-7.786-5.597-9.723l-.754 1.291zm-1.542 2.62c2.009 1.183 3.372 3.336 3.372 5.812a6.71 6.71 0 0 1-3.372 5.812l.753 1.292A8.13 8.13 0 0 0 31.93 24.5a8.13 8.13 0 0 0-4.126-7.104l-.753 1.291zM25.58 21.27a3.754 3.754 0 0 1 1.865 3.229 3.71 3.71 0 0 1-1.865 3.229l.753 1.291a5.173 5.173 0 0 0 2.62-4.52 5.173 5.173 0 0 0-2.62-4.521l-.753 1.292zm-4.126 3.264a2.251 2.251 0 0 0 2.26 2.26 2.25 2.25 0 0 0 2.26-2.26c0-1.291-1.004-2.26-2.26-2.26a2.251 2.251 0 0 0-2.26 2.26zm1.506-.035c0-.395.323-.754.754-.754.395 0 .753.323.753.754a.758.758 0 0 1-.753.753.736.736 0 0 1-.754-.753zm13.455 6.745v5.202h-5.202a.758.758 0 0 0-.754.754c0 .394.323.753.754.753h5.991a.758.758 0 0 0 .754-.753v-5.956c-.036-.43-.359-.754-.79-.754a.758.758 0 0 0-.753.754zm-34.372 0v5.992c0 .394.323.753.754.753h5.991a.758.758 0 0 0 .754-.753c-.036-.43-.359-.79-.754-.79H3.55v-5.202a.758.758 0 0 0-.753-.754.758.758 0 0 0-.754.754z"/>
</svg>
