<svg xmlns="http://www.w3.org/2000/svg" width="40" height="40" style="background: transparent" viewBox="0 0 40 40">
    <defs>
        <linearGradient id="a" x1="0%" y1="0%" y2="100%">
            <stop offset="0%" stop-color="#4DDFBF"/>
            <stop offset="100%" stop-color="#31BE9E"/>
        </linearGradient>
    </defs>
    <path fill="url(#a)" fill-rule="nonzero" d="M38 19.976C38 29.882 29.941 38 20 38S2 29.93 2 19.976c0-.483.386-.918.917-.918.53 0 .917.386.917.918 0 8.94 7.238 16.188 16.166 16.188s16.166-7.249 16.166-16.188c0-4.204-1.592-8.167-4.488-11.21-.338-.387-.338-.919.049-1.306.386-.338.965-.338 1.302.049C36.214 10.843 38 15.289 38 19.976zm-28.23 0c0-.483.385-.918.916-.918h6.563c0-.049 0-.049.049-.097 0-.048.048-.145.096-.193.048-.097.097-.194.145-.338.048-.049.096-.145.145-.194.096-.096.144-.193.24-.29.05-.048.05-.048.05-.096a3.001 3.001 0 0 1 2.074-.87h.289c.05 0 .097 0 .194.048h.096c.049 0 .145.049.193.049h.097c.048 0 .145.048.193.048 0 0 .048 0 .048.048.048.048.145.048.193.097l5.743-5.75c.338-.339.917-.339 1.303 0 .338.338.338.918 0 1.304l-5.743 5.75c.193.387.338.87.338 1.305 0 1.595-1.303 2.948-2.944 2.948-.193 0-.386 0-.53-.048h-.049c-.145-.049-.338-.097-.482-.145-.049 0-.049 0-.097-.049-.145-.048-.29-.145-.386-.193-.048-.048-.096-.048-.145-.097-.096-.096-.241-.145-.338-.241-.048 0-.048-.049-.096-.049-.048-.048-.048-.048-.048-.096-.097-.097-.145-.194-.242-.29-.048-.049-.096-.145-.144-.193a2.357 2.357 0 0 1-.145-.339c-.048-.048-.048-.145-.097-.193 0-.048 0-.048-.048-.097h-6.563c-.483.097-.869-.338-.869-.821zM20 18.864c-.627 0-1.11.484-1.11 1.112 0 .58.483 1.111 1.062 1.111.29 0 .579-.096.772-.338.193-.193.338-.483.338-.773 0-.29-.097-.58-.338-.773a1.1 1.1 0 0 0-.58-.29h-.096c0-.049 0-.049-.048-.049zM18.987 3.836h.048a.988.988 0 0 0 .868-.966.988.988 0 0 0-.965-.87.988.988 0 0 0-.868.966c.048.484.434.87.917.87zm-3.62.58c.097 0 .145 0 .242-.048.482-.145.772-.628.627-1.112-.145-.483-.627-.773-1.11-.628-.483.145-.772.628-.627 1.112.096.434.482.676.868.676zm10.52.483c.097.049.242.049.338.049a.953.953 0 0 0 .869-.58.927.927 0 0 0-.531-1.208c-.483-.194-1.013.048-1.158.531-.193.483 0 1.015.482 1.208zm3.089 1.595a.972.972 0 0 0 .53.145c.29 0 .58-.145.773-.387.29-.435.145-.966-.241-1.256-.435-.29-.966-.145-1.255.242-.338.434-.241 1.014.193 1.256zm-6.467-2.513h.145c.434 0 .82-.338.917-.773.097-.483-.241-.966-.772-1.063-.483-.097-.965.242-1.062.773-.048.532.29.967.772 1.063zM3.11 17.173h.194c.434 0 .82-.29.869-.725.096-.483-.193-.966-.676-1.063-.483-.096-.965.194-1.062.677-.096.531.193 1.015.676 1.111zm1.014-3.527c.145.048.242.096.386.096a.892.892 0 0 0 .82-.531c.194-.435 0-1.015-.434-1.208-.434-.194-1.013 0-1.206.435-.241.434-.048.966.434 1.208zm4.778-5.75a.89.89 0 0 0 .579-.242.922.922 0 0 0 .096-1.305.92.92 0 0 0-1.303-.097.922.922 0 0 0-.096 1.305c.241.193.483.338.724.338zM5.86 10.36c.144.145.337.193.53.193.29 0 .531-.145.724-.338a.937.937 0 0 0-.193-1.305c-.386-.29-.965-.242-1.254.193-.29.387-.242.967.193 1.257zm6.08-4.543c.145 0 .29-.048.434-.096a.938.938 0 0 0 .386-1.257.935.935 0 0 0-1.254-.386.938.938 0 0 0-.386 1.256c.193.29.53.483.82.483z" transform="rotate(-10 20 20)"/>
</svg>
